<svg width="113" height="101" viewBox="0 0 113 101" fill="none" xmlns="http://www.w3.org/2000/svg">
<path d="M92.9057 32.7027C91.7032 32.2887 90.4905 31.9051 89.2688 31.5523C89.474 30.7107 89.663 29.8792 89.8307 29.0623C92.5839 15.6484 90.784 4.84181 84.6362 1.28378C78.7417 -2.12719 69.1017 1.42952 59.366 9.93345C58.4065 10.7731 57.4683 11.6368 56.5523 12.524C55.9391 11.9341 55.315 11.3556 54.6804 10.7889C44.4768 1.69619 34.2494 -2.13605 28.1082 1.43218C22.219 4.85377 20.4752 15.0127 22.9539 27.7254C23.2005 28.9845 23.479 30.237 23.789 31.4819C22.3413 31.8947 20.9443 32.3342 19.6074 32.802C7.64455 36.9882 0.00488281 43.5483 0.00488281 50.3529C0.00488281 57.3809 8.20641 64.43 20.6663 68.7044C21.6764 69.0495 22.695 69.3693 23.721 69.6634C23.3878 71.0042 23.0919 72.354 22.8338 73.7114C20.4708 86.2035 22.3161 96.1223 28.1894 99.5222C34.2556 103.033 44.4371 99.4248 54.3507 90.7268C55.1546 90.0197 55.9408 89.2925 56.7085 88.546C57.7005 89.5066 58.719 90.4393 59.7628 91.343C69.3661 99.6365 78.8503 102.985 84.7178 99.5763C90.7783 96.055 92.7481 85.3995 90.1908 72.4356C89.9894 71.42 89.7635 70.4094 89.5133 69.4047C90.2283 69.1921 90.9301 68.9733 91.6143 68.7456C104.568 64.4385 112.996 57.4748 112.996 50.3529C112.996 43.5235 105.109 36.9191 92.9057 32.7027ZM90.0964 64.1474C89.4785 64.3525 88.8447 64.5505 88.1985 64.7432C86.7684 60.1996 84.8388 55.3684 82.477 50.3764C84.7306 45.5036 86.5862 40.734 87.976 36.22C89.132 36.5558 90.2535 36.9098 91.3349 37.2832C101.791 40.8962 108.169 46.2372 108.169 50.3529C108.169 54.7367 101.281 60.4277 90.0964 64.1474ZM85.4558 73.3765C86.5866 79.1087 86.7477 84.2916 85.9987 88.3436C85.3261 91.9844 83.9728 94.4115 82.2991 95.3839C78.7386 97.4526 71.1237 94.7637 62.9111 87.6707C61.9402 86.8305 60.9928 85.9634 60.07 85.0704C63.254 81.5757 66.4359 77.5131 69.5414 73.0009C75.0037 72.5145 80.1642 71.7189 84.8441 70.6331C85.0695 71.5426 85.2735 72.4573 85.4558 73.3765ZM38.5259 95.0264C35.047 96.2592 32.2761 96.2947 30.6011 95.3254C27.037 93.2624 25.5553 85.2981 27.5764 74.6151C27.8166 73.3527 28.0917 72.0973 28.4013 70.8502C33.0295 71.8779 38.1525 72.6168 43.6277 73.0624C46.7543 77.4776 50.028 81.5358 53.3272 85.0894C52.6261 85.7703 51.9083 86.4338 51.1746 87.0793C46.7905 90.9253 42.3976 93.654 38.5259 95.0264ZM22.2278 64.1204C16.7182 62.2302 12.1681 59.7739 9.04943 57.0934C6.24673 54.6849 4.83214 52.2932 4.83214 50.3529C4.83214 46.2235 10.9659 40.9564 21.1964 37.3767C22.4379 36.9425 23.7373 36.5328 25.0857 36.1483C26.4999 40.7641 28.3545 45.5904 30.5927 50.4708C28.3254 55.4233 26.4443 60.3267 25.0164 64.9971C24.0799 64.7278 23.1501 64.4355 22.2278 64.1204ZM27.6911 26.7947C25.5677 15.9031 26.9779 7.68709 30.5269 5.62501C34.3068 3.4287 42.6655 6.56014 51.4756 14.4116C52.0501 14.9247 52.6153 15.4482 53.171 15.9819C49.888 19.52 46.6444 23.5481 43.5456 27.9371C38.2315 28.4315 33.1447 29.2253 28.4679 30.2889C28.1798 29.1311 27.9208 27.9661 27.6911 26.7951V26.7947ZM76.4303 38.8739C75.3256 36.9589 74.18 35.068 72.9942 33.2024C76.5993 33.66 80.0535 34.2674 83.2971 35.0098C82.3234 38.1426 81.1096 41.4175 79.6809 44.7754C78.6366 42.7867 77.5528 40.8192 76.4303 38.8739ZM56.5545 19.4443C58.7808 21.8652 61.0106 24.5678 63.2037 27.5004C58.7547 27.2895 54.2983 27.2886 49.8492 27.4977C52.0446 24.5922 54.2934 21.8931 56.5545 19.4443ZM36.5512 38.9072C35.4426 40.8367 34.3791 42.792 33.3614 44.7714C31.9561 41.4255 30.7533 38.1355 29.7713 34.9584C32.9951 34.2346 36.4329 33.6428 40.015 33.1936C38.816 35.0705 37.6611 36.9754 36.5512 38.9067V38.9072ZM40.1179 67.857C36.417 67.4423 32.9275 66.8811 29.7046 66.1767C30.7021 62.943 31.9314 59.5829 33.3671 56.1653C34.3888 58.1462 35.4568 60.1026 36.5702 62.0331C37.7151 64.0176 38.9006 65.9614 40.1179 67.857ZM56.6878 81.6027C54.3997 79.1255 52.1178 76.3848 49.8894 73.4372C52.053 73.5223 54.2585 73.5657 56.5002 73.5657C58.8033 73.5657 61.0799 73.5138 63.3207 73.4137C61.1205 76.4145 58.899 79.1592 56.6878 81.6027ZM79.7264 55.9908C81.2368 59.446 82.5097 62.7883 83.5204 65.9667C80.2446 66.7172 76.7074 67.3214 72.9805 67.7701C74.1748 65.87 75.3312 63.9462 76.4492 61.9998C77.5859 60.0215 78.6786 58.018 79.7264 55.9908ZM72.2681 59.5794C70.5566 62.5635 68.7488 65.4909 66.8477 68.3571C63.4039 68.6019 59.9526 68.7235 56.5002 68.7217C52.9838 68.7217 49.5636 68.6118 46.2701 68.3974C44.3194 65.5379 42.4771 62.6053 40.7473 59.606H40.7477C39.026 56.6225 37.4178 53.5745 35.9266 50.4686C37.414 47.3619 39.0173 44.3124 40.7332 41.3267L40.7327 41.3272C42.4479 38.3407 44.2754 35.4207 46.2114 32.5734C49.5716 32.3182 53.0174 32.1853 56.4998 32.1853H56.5002C59.9985 32.1853 63.4487 32.3196 66.808 32.5765C68.7244 35.4195 70.5403 38.3295 72.2522 41.301C73.9738 44.2802 75.5983 47.3147 77.1232 50.3999C75.6139 53.5166 73.9946 56.5784 72.2681 59.5794ZM82.2254 5.48059C86.0089 7.6707 87.4804 16.5024 85.1032 28.0842C84.9513 28.8231 84.781 29.5757 84.5956 30.339C79.9074 29.2528 74.817 28.4452 69.4875 27.9433C66.3829 23.506 63.1658 19.4717 59.9363 15.9793C60.7827 15.1604 61.6492 14.3628 62.5351 13.5872C70.8769 6.30144 78.6733 3.42471 82.2254 5.48059ZM56.5002 40.2264C62.0725 40.2264 66.5899 44.7603 66.5899 50.3529C66.5899 55.9456 62.0725 60.4795 56.5002 60.4795C50.9279 60.4795 46.4105 55.9456 46.4105 50.3529C46.4105 44.7603 50.9279 40.2264 56.5002 40.2264Z" fill="#00D8FF"/>
</svg>
